<?xml version="1.0" encoding="UTF-8"?>
<svg id="Layer_2" data-name="Layer 2" xmlns="http://www.w3.org/2000/svg" xmlns:xlink="http://www.w3.org/1999/xlink" viewBox="0 0 445.83 300.23">
  <defs>
    <style>
      .cls-1 {
        fill: url(#linear-gradient);
      }

      .cls-1, .cls-2, .cls-3 {
        stroke: #231f20;
        stroke-miterlimit: 10;
        stroke-width: .25px;
      }

      .cls-2 {
        fill: url(#linear-gradient-4);
      }

      .cls-3 {
        fill: url(#linear-gradient-2);
      }

      .cls-4 {
        fill: url(#linear-gradient-3);
      }
    </style>
    <linearGradient id="linear-gradient" x1="254.99" y1="169.77" x2="333.79" y2="124.27" gradientUnits="userSpaceOnUse">
      <stop offset=".2" stop-color="#c69b3d"/>
      <stop offset=".5" stop-color="#dcbe74"/>
      <stop offset=".8" stop-color="#dec178"/>
      <stop offset="1" stop-color="#f9f1be"/>
    </linearGradient>
    <linearGradient id="linear-gradient-2" x1="252.02" y1="342.53" x2="417.3" y2="247.11" xlink:href="#linear-gradient"/>
    <linearGradient id="linear-gradient-3" x1="167.06" y1="335.99" x2="399.23" y2="201.94" xlink:href="#linear-gradient"/>
    <linearGradient id="linear-gradient-4" x1="39.37" y1="299.24" x2="422.22" y2="78.2" xlink:href="#linear-gradient"/>
  </defs>
  <g id="Layer_2-2" data-name="Layer 2">
    <g>
      <path class="cls-1" d="M260.66,178.07c.57,2,1.28,3.55,1.77,4.52.35.69,1.71,3.28,4.38,6.11,2.27,2.4,4.31,3.74,6.71,5.32,2.28,1.49,4.41,2.89,7.6,4.1,3.92,1.49,7.12,1.83,8.86,2.01,3.64.36,8.33.28,9.98-.79.15-.1.69-.47,1.49-.65.85-.19,1.59-.07,2.05.05,2.04.6,5.4,1.31,9.51.93,1-.09,3.78-.41,6.99-1.68,9.85-3.89,14.38-12.97,15.3-14.92.72-1.54,2.17-4.97,2.7-9.61.14-1.24.45-4.05,0-7.18-1.45-10.06-10-18.04-13.06-20.89-.69-.64-2.39-2.18-4.1-4.66-1.38-2.01-2.21-3.82-2.89-5.32-1.17-2.58-1.83-4.72-2.33-6.34-.74-2.41-.62-2.5-1.4-4.94-.4-1.26-.95-2.93-1.87-5.04-.56-1.28-1.18-2.67-2.24-4.38-1.06-1.71-1.75-2.79-3.08-3.82-1.12-.87-2.22-1.34-2.8-1.59-.26-.11-1.49-.62-3.36-1.03-1.99-.43-2.5-.27-2.8-.75-.33-.52.05-1.06.93-3.45.92-2.51.76-2.6,1.31-3.54.57-.98,1.25-2.15,2.61-2.8,1.84-.88,3.79-.2,4.38,0,.61.2,1.08.46,1.4.65.31-.36.62-.73.93-1.09-.4-.37-1.05-.89-1.96-1.24-2.19-.85-3.93.01-4.29-.56-.24-.39.16-1.39,3.17-4.2.49-.63,1.16-1.67,1.59-3.08.21-.68.94-3.11,0-5.6-.91-2.4-2.49-2.5-2.89-4.76-.3-1.69.41-2.64,0-2.89-.74-.45-3.71,2.2-5.22,5.6-.3.67-1.01,2.43-1.12,4.85-.19,4.2,1.58,7.41,2.52,8.86v1.96c-.57.11-1.23.16-1.96.09-2.31-.22-3.1-1.75-5.69-3.45-1.67-1.09-3.88-2.55-6.62-2.33-.49.04-2.08.17-3.54,1.21-.71.51-.99.94-1.96,1.96-1.22,1.28-1.86,1.88-2.61,2.42-.69.5-1.75,1.13-3.26,1.59.96.44,1.93.87,2.89,1.31,1.35.72,2.81,1.44,4.38,2.15,1.42.63,2.79,1.19,4.1,1.68.66.13,1.61.22,2.7,0,2.09-.43,3-1.95,4.57-3.17,1.19-.92,3.05-1.95,5.97-2.33-.37.32-.88.81-1.4,1.49-.81,1.06-1.2,2.09-1.96,4.1-.55,1.48-.7,2.1-1.49,4.1-.15.39-.28.71-.37.93-.68.04-1.62.15-2.7.47-2.26.65-3.74,1.78-4.57,2.42-.45.35-1.89,1.51-3.26,3.45-.87,1.24-1.32,2.22-1.96,3.64-.36.79-1.3,2.97-2.15,6.25-.47,1.83-.5,2.42-.84,4.01-1.1,5.16-2.94,8.99-3.45,10.03-.65,1.31-1.94,3.9-4.15,6.67-.57.72-1.74,2.13-3.03,3.59-1.13,1.29-1.63,1.8-2.56,2.94-1.14,1.39-1.96,2.54-2.24,2.94-3.2,4.59-4.24,9.56-4.24,9.56-.69,3.29-.51,5.89-.33,8.39.23,3.18.78,5.19.93,5.74Z"/>
      <path class="cls-3" d="M400.69,275.24c-4.25-.92-18.4-3.74-40.66-1.74-20.94,1.88-37.65,6.98-47.75,10.07-8.1,2.48-14.37,4.81-26.36,7.71-4.38,1.06-12.32,2.87-22.38,4.48-22.4,3.58-36.45,3.17-36.44,3.61.02.64,29.79,2.33,66.78-3.36,2.26-.35,4.04-.65,7.59-1.24,33.09-5.57,38.67-8.32,56.08-10.57,12.57-1.62,21.78-2.81,34.45-1.74,2.11.18,5.95.56,35.19,5.35,6.28,1.03,11.48,1.89,15.05,2.49-9.04-3.65-18.07-7.3-27.11-10.94-3.46-1.23-8.39-2.8-14.42-4.1Z"/>
      <path class="cls-4" d="M432.31,268.68c-6.39-5.44-17.96-15.06-35.53-19.12-8.1-1.87-14.16-1.79-22.85-1.59-10.53.25-22.31,1.49-45.51,6.99-24.81,5.89-29.5,8.77-57.92,15.3-14.68,3.37-20.53,4.23-23.78,4.66-9.8,1.3-24.15,2.46-41.32,1.12-13.98-1.09-24.14-3.39-34.13-5.69-31.55-7.27-50.2-16.35-50.74-15.11-.79,1.84,41.02,21.04,43.74,22.29,1.94.89,5.67,2.59,10.73,4.48,3.47,1.29,10.58,3.81,20.05,5.97,4.15.95,8.28,1.89,13.99,2.52,1.25.14,6.24.66,15.2.56,10.73-.13,19.03-1.06,21.82-1.4,10.44-1.26,18.32-3.05,28.73-5.41.98-.22,5.68-1.29,11.94-2.89,7.47-1.91,10.12-2.88,19.87-5.5,3.95-1.06,6.79-1.79,10.35-2.7,9.02-2.31,13.53-3.46,19.49-4.76,6.85-1.5,11.03-2.4,16.97-3.17,5.95-.77,10.52-.99,13.24-1.12,4.86-.23,10.59-.48,18,.09,6.35.49,11.09,1.36,14.27,1.96,2.57.48,10.36,2.01,20.42,5.32,7.1,2.33,16.23,5.84,26.49,11.19-2.93-3.69-7.38-8.76-13.52-13.99Z"/>
      <path class="cls-2" d="M45.73,228.11c14.12.62,23.56,3.06,25.74,3.64,3.27.87,5.67,1.67,6.53,1.96,32.69,10.89,59.55,19.84,84.5,25.27,26.11,5.68,50.45,10.98,81.79,7.37,19.7-2.27,38.32-7.63,72.47-17.44,17.1-4.91,32.73-9.99,55.12-10.07,12.75-.05,23.3,1.54,30.5,2.98.06-34.76.12-69.51.19-104.27,2.02,1.99,4.04,3.98,6.06,5.97,11.88-.12,23.75-.25,35.63-.37-13.96-13.34-27.92-26.67-41.88-40.01v-59.32h-24.9v36c-27.89-26.55-55.77-53.1-83.66-79.65-50.05,47.75-100.1,95.5-150.16,143.25,12.09-.06,24.19-.12,36.28-.19,1.87-1.87,3.73-3.73,5.6-5.6.03,35.84.06,71.69.09,107.53-3.57.04-8.69.01-14.83-.28-17.42-.83-31.52-3.27-47.1-6.53-37.22-7.79-31.38-9.51-49.52-11.84-23.76-3.06-42.24-1.21-51.2,0-9.34,1.27-17.15,3.04-22.94,4.57,5.66-.87,26.11-3.85,45.7-2.98ZM210.62,113.49c27.79-26.3,55.59-52.6,83.38-78.9,27.73,26.39,55.46,52.79,83.19,79.18v106.41c-4.35-.02-30.24-.1-48.5,1.49-3.61.31-7.68.67-13.15,1.49-3.24.49-8.04,1.41-17.63,3.26-2.77.53-4.56.89-6.9,1.4-4.06.89-6.96,1.63-9.7,2.33-12.6,3.22-11.16,2.76-15.85,4.01-11.03,2.94-9.46,2.94-15.76,4.48-9.24,2.25-16.72,3.24-21.26,3.82-5.38.7-9.48,1.01-11.01,1.12-2.75.2-5.13.31-6.99.37.06-43.49.12-86.98.19-130.48Z"/>
    </g>
  </g>
</svg>